<!DOCTYPE svg PUBLIC "-//W3C//DTD SVG 1.1//EN" "http://www.w3.org/Graphics/SVG/1.1/DTD/svg11.dtd">
<!-- Uploaded to: SVG Repo, www.svgrepo.com, Transformed by: SVG Repo Mixer Tools -->
<svg width="256px" height="256px" viewBox="-57.6 -57.6 691.20 691.20" version="1.1" xmlns="http://www.w3.org/2000/svg" fill="#ffffff">
<g id="SVGRepo_bgCarrier" stroke-width="0"/>
<g id="SVGRepo_tracerCarrier" stroke-linecap="round" stroke-linejoin="round"/>
<g id="SVGRepo_iconCarrier">
<path fill="#ffffff" d="M184,81l184,92l0,34.636l-16,8.032l0,112.332c0,13.255 -10.745,24 -24,24c-13.255,0 -24,-10.745 -24,-24l0,-88.237l-96,48.19l0,120.047c0,13.255 -10.745,24 -24,24c-13.255,0 -24,-10.745 -24,-24l0,-120.047l-96,-48.19l0,88.237c0,13.255 -10.745,24 -24,24c-13.255,0 -24,-10.745 -24,-24l0,-112.332l-16,-8.032l0,-34.636l184,-92Zm288,303c13.255,0 24,-10.745 24,-24c0,-13.255 -10.745,-24 -24,-24c-13.255,0 -24,10.745 -24,24c0,13.255 10.745,24 24,24Zm-40,-184c0,-22.091 17.909,-40 40,-40c22.091,0 40,17.909 40,40c0,22.091 -17.909,40 -40,40c-13.255,0 -24,10.745 -24,24l0,32c0,13.255 10.745,24 24,24c13.255,0 24,-10.745 24,-24l0,-11.312c36.936,-10.447 64,-44.407 64,-84.688c0,-48.601 -39.399,-88 -88,-88c-48.601,0 -88,39.399 -88,88c0,13.255 10.745,24 24,24c13.255,0 24,-10.745 24,-24Z"/>
</g>
</svg>